<?xml version="1.0" encoding="UTF-8"?><svg width="275" height="44" viewBox="0 0 275 44" fill="none" xmlns="http://www.w3.org/2000/svg">
<path d="M22.034 2.44611V9.37309C19.0389 10.5078 16.4661 12.5001 14.5133 14.9147L14.8827 14.8355C22.0472 13.2654 29.2249 17.6723 31.0061 24.7576C32.8138 32.0276 28.3673 39.4164 21.1632 41.224C14.1043 42.9525 6.87382 38.7963 4.8551 31.8297V31.9089C0.923209 19.9021 9.32796 5.96897 22.034 2.44611ZM30.1617 10.4286H51.7739V15.957L44.0157 15.9306V34.9963L38.263 35.0095V15.9438H30.1485V10.4286H30.1617ZM85.6172 10.4946C87.0422 10.4946 88.454 10.864 89.6943 11.5897C90.9213 12.3022 91.7526 13.2522 92.2408 14.4265L100.83 34.9304L94.4706 34.97L86.9762 16.6035C86.8179 16.2473 86.6068 15.9174 86.3693 15.6272C86.3165 15.548 86.1318 15.4293 85.7228 15.4029C84.9443 15.4293 84.0735 15.5744 84.0603 17.1049L84.0999 28.8346C84.0867 29.811 83.8756 30.6686 83.493 31.4075C83.1103 32.1596 82.543 32.7929 81.8569 33.3207C81.1444 33.888 80.3395 34.3102 79.4687 34.5741C78.5055 34.8776 77.516 35.0227 76.5132 34.9963C74.9827 34.9963 73.5841 34.6665 72.423 33.9672C71.1959 33.2547 70.3647 32.3047 69.8897 31.0777L64.2821 16.5772C64.1633 16.2209 63.9786 15.8911 63.7411 15.614C63.53 15.4688 63.2793 15.3765 63.0286 15.3765C62.2502 15.4029 61.4321 15.6272 61.4321 17.0917V34.9568L55.3628 34.9304L55.3892 16.6563C55.3892 15.7855 55.5871 14.9279 55.9829 14.1494C56.3523 13.3973 56.8933 12.7376 57.553 12.2099C58.2391 11.6689 59.1099 11.2467 60.0072 10.9696C60.9703 10.6661 61.9599 10.521 62.9627 10.5474C64.4404 10.4814 65.8258 10.864 67.0529 11.5765C68.28 12.289 69.1112 13.239 69.5862 14.4661L75.141 28.8874C75.3125 29.3492 75.5104 29.6659 75.6819 29.8506C75.8535 30.0353 76.1174 30.0881 76.3944 30.0881C77.1597 30.1277 78.0437 29.9166 78.0569 28.386L78.0173 16.6563C78.0173 15.7855 78.2152 14.9279 78.6111 14.1494C79.0201 13.3842 79.5743 12.698 80.2604 12.1703C80.986 11.6557 81.7909 11.2467 82.6353 10.9828C83.5457 10.6397 84.5617 10.5342 85.6172 10.4946ZM24.5937 26.3673C23.6569 22.6465 19.8834 20.3771 16.1494 21.3139C16.1494 21.3139 16.123 21.3139 16.1098 21.3139C12.7321 22.1715 10.5154 25.4173 10.9245 28.8874C10.9377 29.2568 11.0432 29.6263 11.1356 29.9957C11.9668 33.004 14.764 35.0095 17.8119 34.9963H18.1681C18.6299 34.9963 19.0521 34.9172 19.5271 34.8248C23.2479 33.9012 25.5173 30.1277 24.5937 26.3937C24.5937 26.3937 24.5937 26.3673 24.5937 26.3541V26.3673ZM97.7823 4.38566C99.4316 4.34608 100.791 5.65231 100.817 7.30159C100.843 8.95088 99.5504 10.3099 97.9011 10.3363C97.8615 10.3363 97.8219 10.3363 97.7691 10.3363C96.1199 10.2967 94.8136 8.93768 94.8532 7.2884C94.8928 5.69189 96.1726 4.41205 97.7691 4.37247L97.7823 4.38566Z" fill="white"/>
<path d="M129.331 12.2173H127.737C127.692 11.956 127.608 11.7244 127.486 11.5227C127.364 11.3182 127.212 11.1449 127.03 11.0028C126.848 10.8608 126.641 10.7543 126.408 10.6832C126.178 10.6094 125.929 10.5724 125.662 10.5724C125.188 10.5724 124.767 10.6918 124.401 10.9304C124.034 11.1662 123.747 11.5128 123.54 11.9702C123.332 12.4247 123.229 12.9801 123.229 13.6364C123.229 14.304 123.332 14.8665 123.54 15.3239C123.75 15.7784 124.037 16.1222 124.401 16.3551C124.767 16.5852 125.186 16.7003 125.658 16.7003C125.919 16.7003 126.163 16.6662 126.391 16.598C126.621 16.527 126.827 16.4233 127.009 16.2869C127.193 16.1506 127.348 15.983 127.473 15.7841C127.601 15.5852 127.689 15.358 127.737 15.1023L129.331 15.1108C129.271 15.5256 129.142 15.9148 128.943 16.2784C128.747 16.642 128.49 16.9631 128.172 17.2415C127.854 17.517 127.482 17.733 127.055 17.8892C126.629 18.0426 126.156 18.1193 125.636 18.1193C124.869 18.1193 124.185 17.9418 123.582 17.5866C122.98 17.2315 122.506 16.7188 122.159 16.0483C121.813 15.3778 121.639 14.5739 121.639 13.6364C121.639 12.696 121.814 11.892 122.163 11.2244C122.513 10.554 122.989 10.0412 123.591 9.68608C124.193 9.33097 124.875 9.15341 125.636 9.15341C126.122 9.15341 126.574 9.22159 126.991 9.35795C127.409 9.49432 127.781 9.6946 128.108 9.95881C128.435 10.2202 128.703 10.5412 128.913 10.9219C129.126 11.2997 129.266 11.7315 129.331 12.2173ZM138.577 13.6364C138.577 14.5767 138.401 15.3821 138.049 16.0526C137.699 16.7202 137.222 17.2315 136.617 17.5866C136.015 17.9418 135.331 18.1193 134.567 18.1193C133.803 18.1193 133.118 17.9418 132.513 17.5866C131.911 17.2287 131.434 16.7159 131.081 16.0483C130.732 15.3778 130.557 14.5739 130.557 13.6364C130.557 12.696 130.732 11.892 131.081 11.2244C131.434 10.554 131.911 10.0412 132.513 9.68608C133.118 9.33097 133.803 9.15341 134.567 9.15341C135.331 9.15341 136.015 9.33097 136.617 9.68608C137.222 10.0412 137.699 10.554 138.049 11.2244C138.401 11.892 138.577 12.696 138.577 13.6364ZM136.988 13.6364C136.988 12.9744 136.884 12.4162 136.676 11.9616C136.472 11.5043 136.188 11.1591 135.824 10.9261C135.461 10.6903 135.042 10.5724 134.567 10.5724C134.093 10.5724 133.674 10.6903 133.31 10.9261C132.946 11.1591 132.661 11.5043 132.453 11.9616C132.249 12.4162 132.147 12.9744 132.147 13.6364C132.147 14.2983 132.249 14.858 132.453 15.3153C132.661 15.7699 132.946 16.1151 133.31 16.3509C133.674 16.5838 134.093 16.7003 134.567 16.7003C135.042 16.7003 135.461 16.5838 135.824 16.3509C136.188 16.1151 136.472 15.7699 136.676 15.3153C136.884 14.858 136.988 14.2983 136.988 13.6364ZM147.244 9.27273V18H145.837L141.725 12.0554H141.653V18H140.072V9.27273H141.487L145.594 15.2216H145.671V9.27273H147.244ZM153.709 11.6719C153.669 11.2997 153.502 11.0099 153.206 10.8026C152.914 10.5952 152.533 10.4915 152.064 10.4915C151.735 10.4915 151.452 10.5412 151.216 10.6406C150.98 10.7401 150.8 10.875 150.675 11.0455C150.55 11.2159 150.486 11.4105 150.483 11.6293C150.483 11.8111 150.525 11.9687 150.607 12.1023C150.692 12.2358 150.807 12.3494 150.952 12.4432C151.097 12.5341 151.257 12.6108 151.434 12.6733C151.61 12.7358 151.787 12.7884 151.966 12.831L152.784 13.0355C153.114 13.1122 153.431 13.2159 153.735 13.3466C154.042 13.4773 154.316 13.642 154.557 13.8409C154.801 14.0398 154.995 14.2798 155.137 14.5611C155.279 14.8423 155.35 15.1719 155.35 15.5497C155.35 16.0611 155.219 16.5114 154.958 16.9006C154.696 17.2869 154.319 17.5895 153.824 17.8082C153.333 18.0241 152.738 18.1321 152.039 18.1321C151.36 18.1321 150.77 18.027 150.27 17.8168C149.773 17.6065 149.384 17.2997 149.103 16.8963C148.824 16.4929 148.674 16.0014 148.651 15.4219H150.206C150.229 15.7259 150.323 15.9787 150.488 16.1804C150.652 16.3821 150.867 16.5327 151.131 16.6321C151.398 16.7315 151.696 16.7812 152.026 16.7812C152.37 16.7812 152.671 16.7301 152.929 16.6278C153.191 16.5227 153.395 16.3778 153.543 16.1932C153.691 16.0057 153.766 15.7869 153.769 15.5369C153.766 15.3097 153.699 15.1222 153.569 14.9744C153.438 14.8239 153.255 14.6989 153.019 14.5994C152.786 14.4972 152.513 14.4062 152.201 14.3267L151.208 14.071C150.489 13.8864 149.921 13.6065 149.503 13.2315C149.088 12.8537 148.881 12.3523 148.881 11.7273C148.881 11.2131 149.02 10.7628 149.299 10.3764C149.58 9.99006 149.962 9.69034 150.445 9.47727C150.928 9.26136 151.475 9.15341 152.086 9.15341C152.705 9.15341 153.248 9.26136 153.713 9.47727C154.182 9.69034 154.55 9.98722 154.817 10.3679C155.084 10.7457 155.222 11.1804 155.23 11.6719H153.709ZM156.759 18V9.27273H162.435V10.598H158.34V12.9673H162.141V14.2926H158.34V16.6747H162.469V18H156.759ZM165.629 9.27273V18H164.048V9.27273H165.629ZM167.341 18V9.27273H168.922V16.6747H172.766V18H167.341ZM175.881 16.8068L175.826 17.2756C175.786 17.6335 175.715 17.9972 175.613 18.3665C175.513 18.7386 175.408 19.081 175.297 19.3935C175.186 19.706 175.097 19.9517 175.029 20.1307H173.989C174.029 19.9574 174.083 19.7216 174.151 19.4233C174.222 19.125 174.29 18.7898 174.355 18.4176C174.421 18.0455 174.465 17.6676 174.488 17.2841L174.517 16.8068H175.881ZM183.342 18H180.384V9.27273H183.401C184.268 9.27273 185.012 9.44744 185.634 9.79688C186.259 10.1435 186.739 10.642 187.075 11.2926C187.41 11.9432 187.577 12.7216 187.577 13.6278C187.577 14.5369 187.408 15.3182 187.07 15.9716C186.735 16.625 186.251 17.1264 185.617 17.4759C184.987 17.8253 184.228 18 183.342 18ZM181.965 16.6321H183.265C183.873 16.6321 184.38 16.5213 184.786 16.2997C185.192 16.0753 185.498 15.7415 185.702 15.2983C185.907 14.8523 186.009 14.2955 186.009 13.6278C186.009 12.9602 185.907 12.4062 185.702 11.9659C185.498 11.5227 185.195 11.1918 184.795 10.973C184.397 10.7514 183.903 10.6406 183.312 10.6406H181.965V16.6321ZM189.08 18V9.27273H194.756V10.598H190.661V12.9673H194.462V14.2926H190.661V16.6747H194.79V18H189.08ZM201.112 11.6719C201.072 11.2997 200.904 11.0099 200.609 10.8026C200.316 10.5952 199.935 10.4915 199.467 10.4915C199.137 10.4915 198.854 10.5412 198.619 10.6406C198.383 10.7401 198.202 10.875 198.077 11.0455C197.952 11.2159 197.888 11.4105 197.886 11.6293C197.886 11.8111 197.927 11.9687 198.009 12.1023C198.094 12.2358 198.21 12.3494 198.354 12.4432C198.499 12.5341 198.66 12.6108 198.836 12.6733C199.012 12.7358 199.19 12.7884 199.369 12.831L200.187 13.0355C200.516 13.1122 200.833 13.2159 201.137 13.3466C201.444 13.4773 201.718 13.642 201.96 13.8409C202.204 14.0398 202.397 14.2798 202.539 14.5611C202.681 14.8423 202.752 15.1719 202.752 15.5497C202.752 16.0611 202.621 16.5114 202.36 16.9006C202.099 17.2869 201.721 17.5895 201.227 17.8082C200.735 18.0241 200.14 18.1321 199.441 18.1321C198.762 18.1321 198.173 18.027 197.673 17.8168C197.175 17.6065 196.786 17.2997 196.505 16.8963C196.227 16.4929 196.076 16.0014 196.053 15.4219H197.609C197.631 15.7259 197.725 15.9787 197.89 16.1804C198.055 16.3821 198.269 16.5327 198.533 16.6321C198.8 16.7315 199.099 16.7812 199.428 16.7812C199.772 16.7812 200.073 16.7301 200.332 16.6278C200.593 16.5227 200.798 16.3778 200.945 16.1932C201.093 16.0057 201.168 15.7869 201.171 15.5369C201.168 15.3097 201.102 15.1222 200.971 14.9744C200.84 14.8239 200.657 14.6989 200.421 14.5994C200.188 14.4972 199.915 14.4062 199.603 14.3267L198.61 14.071C197.891 13.8864 197.323 13.6065 196.906 13.2315C196.491 12.8537 196.283 12.3523 196.283 11.7273C196.283 11.2131 196.423 10.7628 196.701 10.3764C196.982 9.99006 197.364 9.69034 197.847 9.47727C198.33 9.26136 198.877 9.15341 199.488 9.15341C200.107 9.15341 200.65 9.26136 201.116 9.47727C201.585 9.69034 201.952 9.98722 202.219 10.3679C202.487 10.7457 202.624 11.1804 202.633 11.6719H201.112ZM205.743 9.27273V18H204.162V9.27273H205.743ZM213.301 12.0597C213.23 11.8295 213.132 11.6236 213.007 11.4418C212.885 11.2571 212.737 11.0994 212.564 10.9688C212.393 10.8381 212.197 10.7401 211.976 10.6747C211.754 10.6065 211.513 10.5724 211.251 10.5724C210.783 10.5724 210.365 10.6903 209.999 10.9261C209.632 11.1619 209.344 11.5085 209.134 11.9659C208.926 12.4205 208.822 12.9744 208.822 13.6278C208.822 14.2869 208.926 14.8452 209.134 15.3026C209.341 15.7599 209.629 16.108 209.999 16.3466C210.368 16.5824 210.797 16.7003 211.286 16.7003C211.729 16.7003 212.112 16.6151 212.436 16.4446C212.763 16.2741 213.014 16.0327 213.19 15.7202C213.366 15.4048 213.455 15.0355 213.455 14.6122L213.812 14.6676H211.443V13.4318H214.984V14.4801C214.984 15.2273 214.825 15.8736 214.507 16.419C214.189 16.9645 213.751 17.3849 213.195 17.6804C212.638 17.973 211.999 18.1193 211.277 18.1193C210.473 18.1193 209.767 17.9389 209.159 17.5781C208.554 17.2145 208.081 16.6989 207.74 16.0312C207.402 15.3608 207.233 14.5653 207.233 13.6449C207.233 12.9403 207.332 12.3111 207.531 11.7571C207.733 11.2031 208.014 10.733 208.375 10.3466C208.736 9.95739 209.159 9.66193 209.645 9.46023C210.131 9.25568 210.659 9.15341 211.23 9.15341C211.713 9.15341 212.163 9.22443 212.581 9.36648C212.999 9.50568 213.369 9.70455 213.693 9.96307C214.02 10.2216 214.288 10.5284 214.499 10.8835C214.709 11.2386 214.847 11.6307 214.912 12.0597H213.301ZM223.685 9.27273V18H222.279L218.167 12.0554H218.094V18H216.513V9.27273H217.928L222.036 15.2216H222.113V9.27273H223.685ZM230.924 18.1278C230.327 18.1278 229.815 18.0199 229.386 17.804C228.957 17.5881 228.626 17.2969 228.393 16.9304C228.163 16.5611 228.048 16.1449 228.048 15.6818C228.048 15.3324 228.119 15.0227 228.261 14.7528C228.406 14.483 228.604 14.233 228.857 14.0028C229.113 13.7727 229.408 13.544 229.744 13.3168L231.29 12.2642C231.518 12.1165 231.69 11.9602 231.806 11.7955C231.925 11.6307 231.985 11.4375 231.985 11.2159C231.985 11.0284 231.906 10.8509 231.746 10.6832C231.59 10.5156 231.374 10.4318 231.099 10.4318C230.914 10.4318 230.751 10.4759 230.609 10.5639C230.469 10.6491 230.36 10.7614 230.281 10.9006C230.204 11.0398 230.165 11.1875 230.165 11.3438C230.165 11.5341 230.218 11.7273 230.323 11.9233C230.431 12.1193 230.57 12.3224 230.741 12.5327C230.914 12.7429 231.099 12.9659 231.295 13.2017L235.39 18H233.719L230.319 14.1051C230.066 13.8097 229.822 13.5185 229.586 13.2315C229.353 12.9446 229.161 12.6463 229.011 12.3366C228.863 12.0241 228.789 11.6861 228.789 11.3224C228.789 10.9105 228.884 10.5426 229.075 10.2188C229.265 9.89205 229.531 9.63494 229.871 9.44744C230.215 9.25994 230.617 9.16619 231.077 9.16619C231.538 9.16619 231.933 9.2571 232.262 9.43892C232.592 9.62074 232.846 9.86222 233.025 10.1634C233.204 10.4645 233.293 10.7926 233.293 11.1477C233.293 11.5597 233.191 11.929 232.987 12.2557C232.782 12.5795 232.498 12.8736 232.134 13.1378L230.37 14.429C230.08 14.6392 229.873 14.8523 229.748 15.0682C229.623 15.2812 229.56 15.4631 229.56 15.6136C229.56 15.8437 229.619 16.0526 229.735 16.2401C229.852 16.4276 230.015 16.5781 230.225 16.6918C230.438 16.8026 230.687 16.858 230.971 16.858C231.283 16.858 231.592 16.7884 231.896 16.6491C232.2 16.5071 232.477 16.3054 232.727 16.044C232.977 15.7827 233.175 15.4702 233.323 15.1065C233.471 14.7401 233.545 14.3338 233.545 13.8878H234.87C234.87 14.4389 234.809 14.919 234.687 15.3281C234.565 15.7344 234.407 16.0781 234.214 16.3594C234.021 16.6378 233.816 16.8608 233.6 17.0284C233.532 17.0767 233.467 17.125 233.404 17.1733C233.342 17.2216 233.276 17.2699 233.208 17.3182C232.901 17.5966 232.542 17.8011 232.13 17.9318C231.721 18.0625 231.319 18.1278 230.924 18.1278ZM121.861 35V26.2727H125.134C125.804 26.2727 126.366 26.3892 126.821 26.6222C127.278 26.8551 127.624 27.1818 127.857 27.6023C128.092 28.0199 128.21 28.5071 128.21 29.0639C128.21 29.6236 128.091 30.1094 127.852 30.5213C127.616 30.9304 127.268 31.2472 126.808 31.4716C126.348 31.6932 125.783 31.804 125.112 31.804H122.781V30.4915H124.899C125.291 30.4915 125.612 30.4375 125.862 30.3295C126.112 30.2187 126.297 30.0582 126.416 29.848C126.538 29.6349 126.599 29.3736 126.599 29.0639C126.599 28.7543 126.538 28.4901 126.416 28.2713C126.294 28.0497 126.108 27.8821 125.858 27.7685C125.608 27.652 125.286 27.5938 124.891 27.5938H123.442V35H121.861ZM126.369 31.0455L128.53 35H126.766L124.643 31.0455H126.369ZM129.665 35V26.2727H135.342V27.598H131.246V29.9673H135.048V31.2926H131.246V33.6747H135.376V35H129.665ZM131.915 25.4119L132.87 23.4645H134.379L133.07 25.4119H131.915ZM138.075 35H136.388L139.46 26.2727H141.412L144.489 35H142.801L140.47 28.0625H140.402L138.075 35ZM138.131 31.5781H142.733V32.848H138.131V31.5781ZM145.638 35V26.2727H147.219V33.6747H151.063V35H145.638ZM154.016 26.2727V35H152.435V26.2727H154.016ZM160.471 28.6719C160.431 28.2997 160.263 28.0099 159.968 27.8026C159.675 27.5952 159.295 27.4915 158.826 27.4915C158.496 27.4915 158.214 27.5412 157.978 27.6406C157.742 27.7401 157.562 27.875 157.437 28.0455C157.312 28.2159 157.248 28.4105 157.245 28.6293C157.245 28.8111 157.286 28.9687 157.369 29.1023C157.454 29.2358 157.569 29.3494 157.714 29.4432C157.859 29.5341 158.019 29.6108 158.195 29.6733C158.371 29.7358 158.549 29.7884 158.728 29.831L159.546 30.0355C159.876 30.1122 160.192 30.2159 160.496 30.3466C160.803 30.4773 161.077 30.642 161.319 30.8409C161.563 31.0398 161.756 31.2798 161.898 31.5611C162.04 31.8423 162.112 32.1719 162.112 32.5497C162.112 33.0611 161.981 33.5114 161.719 33.9006C161.458 34.2869 161.08 34.5895 160.586 34.8082C160.094 35.0241 159.499 35.1321 158.8 35.1321C158.121 35.1321 157.532 35.027 157.032 34.8168C156.535 34.6065 156.146 34.2997 155.864 33.8963C155.586 33.4929 155.435 33.0014 155.413 32.4219H156.968C156.991 32.7259 157.085 32.9787 157.249 33.1804C157.414 33.3821 157.629 33.5327 157.893 33.6321C158.16 33.7315 158.458 33.7812 158.788 33.7812C159.131 33.7812 159.433 33.7301 159.691 33.6278C159.952 33.5227 160.157 33.3778 160.305 33.1932C160.452 33.0057 160.528 32.7869 160.531 32.5369C160.528 32.3097 160.461 32.1222 160.33 31.9744C160.2 31.8239 160.016 31.6989 159.781 31.5994C159.548 31.4972 159.275 31.4062 158.962 31.3267L157.969 31.071C157.251 30.8864 156.683 30.6065 156.265 30.2315C155.85 29.8537 155.643 29.3523 155.643 28.7273C155.643 28.2131 155.782 27.7628 156.06 27.3764C156.342 26.9901 156.724 26.6903 157.207 26.4773C157.69 26.2614 158.237 26.1534 158.847 26.1534C159.467 26.1534 160.009 26.2614 160.475 26.4773C160.944 26.6903 161.312 26.9872 161.579 27.3679C161.846 27.7457 161.984 28.1804 161.992 28.6719H160.471ZM164.501 35H162.814L165.886 26.2727H167.838L170.914 35H169.227L166.896 28.0625H166.828L164.501 35ZM164.556 31.5781H169.159V32.848H164.556V31.5781ZM170.626 27.598V26.2727H177.589V27.598H174.891V35H173.323V27.598H170.626ZM180.512 26.2727V35H178.931V26.2727H180.512ZM190.022 30.6364C190.022 31.5767 189.846 32.3821 189.494 33.0526C189.145 33.7202 188.667 34.2315 188.062 34.5866C187.46 34.9418 186.777 35.1193 186.012 35.1193C185.248 35.1193 184.564 34.9418 183.958 34.5866C183.356 34.2287 182.879 33.7159 182.527 33.0483C182.177 32.3778 182.002 31.5739 182.002 30.6364C182.002 29.696 182.177 28.892 182.527 28.2244C182.879 27.554 183.356 27.0412 183.958 26.6861C184.564 26.331 185.248 26.1534 186.012 26.1534C186.777 26.1534 187.46 26.331 188.062 26.6861C188.667 27.0412 189.145 27.554 189.494 28.2244C189.846 28.892 190.022 29.696 190.022 30.6364ZM188.433 30.6364C188.433 29.9744 188.329 29.4162 188.122 28.9616C187.917 28.5043 187.633 28.1591 187.27 27.9261C186.906 27.6903 186.487 27.5724 186.012 27.5724C185.538 27.5724 185.119 27.6903 184.755 27.9261C184.392 28.1591 184.106 28.5043 183.899 28.9616C183.694 29.4162 183.592 29.9744 183.592 30.6364C183.592 31.2983 183.694 31.858 183.899 32.3153C184.106 32.7699 184.392 33.1151 184.755 33.3509C185.119 33.5838 185.538 33.7003 186.012 33.7003C186.487 33.7003 186.906 33.5838 187.27 33.3509C187.633 33.1151 187.917 32.7699 188.122 32.3153C188.329 31.858 188.433 31.2983 188.433 30.6364ZM198.689 26.2727V35H197.283L193.17 29.0554H193.098V35H191.517V26.2727H192.932L197.04 32.2216H197.116V26.2727H198.689ZM210.56 26.2727V35H209.154L205.042 29.0554H204.969V35H203.388V26.2727H204.803L208.911 32.2216H208.988V26.2727H210.56ZM217.784 26.2727H219.365V31.9744C219.365 32.5994 219.217 33.1491 218.922 33.6236C218.629 34.098 218.217 34.4687 217.686 34.7358C217.155 35 216.534 35.1321 215.824 35.1321C215.111 35.1321 214.489 35 213.957 34.7358C213.426 34.4687 213.014 34.098 212.722 33.6236C212.429 33.1491 212.283 32.5994 212.283 31.9744V26.2727H213.864V31.8423C213.864 32.206 213.943 32.5298 214.102 32.8139C214.264 33.098 214.491 33.321 214.784 33.483C215.077 33.642 215.423 33.7216 215.824 33.7216C216.224 33.7216 216.571 33.642 216.864 33.483C217.159 33.321 217.386 33.098 217.545 32.8139C217.705 32.5298 217.784 32.206 217.784 31.8423V26.2727ZM221.083 26.2727H223.018L225.609 32.5966H225.711L228.302 26.2727H230.237V35H228.72V29.0043H228.639L226.227 34.9744H225.093L222.681 28.9915H222.6V35H221.083V26.2727ZM231.958 35V26.2727H237.635V27.598H233.539V29.9673H237.341V31.2926H233.539V33.6747H237.669V35H231.958ZM234.208 25.4119L235.163 23.4645H236.672L235.363 25.4119H234.208ZM239.248 35V26.2727H242.52C243.191 26.2727 243.753 26.3892 244.208 26.6222C244.665 26.8551 245.01 27.1818 245.243 27.6023C245.479 28.0199 245.597 28.5071 245.597 29.0639C245.597 29.6236 245.478 30.1094 245.239 30.5213C245.003 30.9304 244.655 31.2472 244.195 31.4716C243.735 31.6932 243.169 31.804 242.499 31.804H240.168V30.4915H242.286C242.678 30.4915 242.999 30.4375 243.249 30.3295C243.499 30.2187 243.684 30.0582 243.803 29.848C243.925 29.6349 243.986 29.3736 243.986 29.0639C243.986 28.7543 243.925 28.4901 243.803 28.2713C243.681 28.0497 243.495 27.8821 243.245 27.7685C242.995 27.652 242.672 27.5938 242.277 27.5938H240.828V35H239.248ZM243.756 31.0455L245.917 35H244.152L242.03 31.0455H243.756ZM248.633 26.2727V35H247.052V26.2727H248.633ZM253.597 32.0682H255.028L255.876 33.1676L256.482 33.8835L257.935 35.75H256.401L255.412 34.4972L254.99 33.9006L253.597 32.0682ZM258.143 30.6364C258.143 31.5767 257.967 32.3821 257.615 33.0526C257.266 33.7202 256.788 34.2315 256.183 34.5866C255.581 34.9418 254.898 35.1193 254.134 35.1193C253.369 35.1193 252.685 34.9418 252.08 34.5866C251.477 34.2287 251 33.7159 250.648 33.0483C250.298 32.3778 250.124 31.5739 250.124 30.6364C250.124 29.696 250.298 28.892 250.648 28.2244C251 27.554 251.477 27.0412 252.08 26.6861C252.685 26.331 253.369 26.1534 254.134 26.1534C254.898 26.1534 255.581 26.331 256.183 26.6861C256.788 27.0412 257.266 27.554 257.615 28.2244C257.967 28.892 258.143 29.696 258.143 30.6364ZM256.554 30.6364C256.554 29.9744 256.45 29.4162 256.243 28.9616C256.038 28.5043 255.754 28.1591 255.391 27.9261C255.027 27.6903 254.608 27.5724 254.134 27.5724C253.659 27.5724 253.24 27.6903 252.876 27.9261C252.513 28.1591 252.227 28.5043 252.02 28.9616C251.815 29.4162 251.713 29.9744 251.713 30.6364C251.713 31.2983 251.815 31.858 252.02 32.3153C252.227 32.7699 252.513 33.1151 252.876 33.3509C253.24 33.5838 253.659 33.7003 254.134 33.7003C254.608 33.7003 255.027 33.5838 255.391 33.3509C255.754 33.1151 256.038 32.7699 256.243 32.3153C256.45 31.858 256.554 31.2983 256.554 30.6364ZM265.151 26.2727H266.732V31.9744C266.732 32.5994 266.585 33.1491 266.289 33.6236C265.996 34.098 265.585 34.4687 265.053 34.7358C264.522 35 263.901 35.1321 263.191 35.1321C262.478 35.1321 261.856 35 261.325 34.7358C260.793 34.4687 260.381 34.098 260.089 33.6236C259.796 33.1491 259.65 32.5994 259.65 31.9744V26.2727H261.231V31.8423C261.231 32.206 261.31 32.5298 261.469 32.8139C261.631 33.098 261.859 33.321 262.151 33.483C262.444 33.642 262.79 33.7216 263.191 33.7216C263.592 33.7216 263.938 33.642 264.231 33.483C264.526 33.321 264.754 33.098 264.913 32.8139C265.072 32.5298 265.151 32.206 265.151 31.8423V26.2727ZM268.451 35V26.2727H274.127V27.598H270.032V29.9673H273.833V31.2926H270.032V33.6747H274.161V35H268.451Z" fill="white"/>
</svg>
