<?xml version="1.0" encoding="UTF-8"?><svg width="275" height="43" viewBox="0 0 275 43" fill="none" xmlns="http://www.w3.org/2000/svg">
<path d="M22.034 1.72839V8.65538C19.0389 9.79009 16.4661 11.7824 14.5133 14.197L14.8827 14.1178C22.0472 12.5477 29.2249 16.9546 31.0061 24.0399C32.8138 31.3099 28.3673 38.6987 21.1632 40.5063C14.1043 42.2348 6.87382 38.0786 4.8551 31.112V31.1912C0.923209 19.1844 9.32796 5.25126 22.034 1.72839ZM30.1617 9.71092H51.7739V15.2393L44.0157 15.2129V34.2786L38.263 34.2918V15.2261H30.1485V9.71092H30.1617ZM85.6172 9.77689C87.0422 9.77689 88.454 10.1463 89.6943 10.872C90.9213 11.5845 91.7526 12.5345 92.2408 13.7088L100.83 34.2127L94.4706 34.2522L86.9762 15.8858C86.8179 15.5296 86.6068 15.1997 86.3693 14.9095C86.3165 14.8303 86.1318 14.7115 85.7228 14.6852C84.9443 14.7115 84.0735 14.8567 84.0603 16.3872L84.0999 28.1169C84.0867 29.0933 83.8756 29.9509 83.493 30.6898C83.1103 31.4419 82.543 32.0752 81.8569 32.603C81.1444 33.1703 80.3395 33.5925 79.4687 33.8564C78.5055 34.1599 77.516 34.305 76.5132 34.2786C74.9827 34.2786 73.5841 33.9488 72.423 33.2495C71.1959 32.537 70.3647 31.587 69.8897 30.3599L64.2821 15.8594C64.1633 15.5032 63.9786 15.1733 63.7411 14.8963C63.53 14.7511 63.2793 14.6588 63.0286 14.6588C62.2502 14.6852 61.4321 14.9095 61.4321 16.374V34.2391L55.3628 34.2127L55.3892 15.9386C55.3892 15.0678 55.5871 14.2102 55.9829 13.4317C56.3523 12.6796 56.8933 12.0199 57.553 11.4921C58.2391 10.9512 59.1099 10.529 60.0072 10.2519C60.9703 9.94842 61.9599 9.80328 62.9627 9.82967C64.4404 9.7637 65.8258 10.1463 67.0529 10.8588C68.28 11.5713 69.1112 12.5213 69.5862 13.7484L75.141 28.1697C75.3125 28.6315 75.5104 28.9482 75.6819 29.1329C75.8535 29.3176 76.1174 29.3704 76.3944 29.3704C77.1597 29.41 78.0437 29.1988 78.0569 27.6683L78.0173 15.9386C78.0173 15.0678 78.2152 14.2102 78.6111 13.4317C79.0201 12.6664 79.5743 11.9803 80.2604 11.4526C80.986 10.938 81.7909 10.529 82.6353 10.2651C83.5457 9.92203 84.5617 9.81648 85.6172 9.77689ZM24.5937 25.6496C23.6569 21.9288 19.8834 19.6594 16.1494 20.5962C16.1494 20.5962 16.123 20.5962 16.1098 20.5962C12.7321 21.4538 10.5154 24.6996 10.9245 28.1697C10.9377 28.5391 11.0432 28.9086 11.1356 29.278C11.9668 32.2863 14.764 34.2918 17.8119 34.2786H18.1681C18.6299 34.2786 19.0521 34.1995 19.5271 34.1071C23.2479 33.1835 25.5173 29.41 24.5937 25.676C24.5937 25.676 24.5937 25.6496 24.5937 25.6364V25.6496ZM97.7823 3.66795C99.4316 3.62837 100.791 4.9346 100.817 6.58388C100.843 8.23316 99.5504 9.59217 97.9011 9.61856C97.8615 9.61856 97.8219 9.61856 97.7691 9.61856C96.1199 9.57898 94.8136 8.21997 94.8532 6.57069C94.8928 4.97418 96.1726 3.69434 97.7691 3.65476L97.7823 3.66795Z" fill="#0D1414"/>
<path d="M129.331 11.4997H127.737C127.692 11.2383 127.608 11.0068 127.486 10.8051C127.364 10.6005 127.212 10.4272 127.03 10.2852C126.848 10.1431 126.641 10.0366 126.408 9.96559C126.178 9.89172 125.929 9.85479 125.662 9.85479C125.188 9.85479 124.767 9.97411 124.401 10.2127C124.034 10.4485 123.747 10.7951 123.54 11.2525C123.332 11.7071 123.229 12.2625 123.229 12.9187C123.229 13.5863 123.332 14.1488 123.54 14.6062C123.75 15.0608 124.037 15.4045 124.401 15.6375C124.767 15.8676 125.186 15.9826 125.658 15.9826C125.919 15.9826 126.163 15.9485 126.391 15.8804C126.621 15.8093 126.827 15.7056 127.009 15.5693C127.193 15.4329 127.348 15.2653 127.473 15.0664C127.601 14.8676 127.689 14.6403 127.737 14.3846L129.331 14.3931C129.271 14.8079 129.142 15.1971 128.943 15.5608C128.747 15.9244 128.49 16.2454 128.172 16.5238C127.854 16.7994 127.482 17.0153 127.055 17.1716C126.629 17.325 126.156 17.4017 125.636 17.4017C124.869 17.4017 124.185 17.2241 123.582 16.869C122.98 16.5139 122.506 16.0011 122.159 15.3306C121.813 14.6602 121.639 13.8562 121.639 12.9187C121.639 11.9784 121.814 11.1744 122.163 10.5068C122.513 9.83633 122.989 9.32354 123.591 8.96843C124.193 8.61331 124.875 8.43576 125.636 8.43576C126.122 8.43576 126.574 8.50394 126.991 8.6403C127.409 8.77667 127.781 8.97695 128.108 9.24116C128.435 9.50252 128.703 9.82354 128.913 10.2042C129.126 10.5821 129.266 11.0139 129.331 11.4997ZM138.577 12.9187C138.577 13.8591 138.401 14.6645 138.049 15.3349C137.699 16.0025 137.222 16.5139 136.617 16.869C136.015 17.2241 135.331 17.4017 134.567 17.4017C133.803 17.4017 133.118 17.2241 132.513 16.869C131.911 16.511 131.434 15.9983 131.081 15.3306C130.732 14.6602 130.557 13.8562 130.557 12.9187C130.557 11.9784 130.732 11.1744 131.081 10.5068C131.434 9.83633 131.911 9.32354 132.513 8.96843C133.118 8.61331 133.803 8.43576 134.567 8.43576C135.331 8.43576 136.015 8.61331 136.617 8.96843C137.222 9.32354 137.699 9.83633 138.049 10.5068C138.401 11.1744 138.577 11.9784 138.577 12.9187ZM136.988 12.9187C136.988 12.2568 136.884 11.6985 136.676 11.244C136.472 10.7866 136.188 10.4414 135.824 10.2085C135.461 9.97269 135.042 9.85479 134.567 9.85479C134.093 9.85479 133.674 9.97269 133.31 10.2085C132.946 10.4414 132.661 10.7866 132.453 11.244C132.249 11.6985 132.147 12.2568 132.147 12.9187C132.147 13.5806 132.249 14.1403 132.453 14.5977C132.661 15.0522 132.946 15.3974 133.31 15.6332C133.674 15.8662 134.093 15.9826 134.567 15.9826C135.042 15.9826 135.461 15.8662 135.824 15.6332C136.188 15.3974 136.472 15.0522 136.676 14.5977C136.884 14.1403 136.988 13.5806 136.988 12.9187ZM147.244 8.55508V17.2823H145.837L141.725 11.3377H141.653V17.2823H140.072V8.55508H141.487L145.594 14.5039H145.671V8.55508H147.244ZM153.709 10.9542C153.669 10.5821 153.502 10.2923 153.206 10.0849C152.914 9.87752 152.533 9.77383 152.064 9.77383C151.735 9.77383 151.452 9.82354 151.216 9.92297C150.98 10.0224 150.8 10.1573 150.675 10.3278C150.55 10.4983 150.486 10.6929 150.483 10.9116C150.483 11.0934 150.525 11.2511 150.607 11.3846C150.692 11.5181 150.807 11.6318 150.952 11.7255C151.097 11.8164 151.257 11.8931 151.434 11.9556C151.61 12.0181 151.787 12.0707 151.966 12.1133L152.784 12.3179C153.114 12.3946 153.431 12.4983 153.735 12.6289C154.042 12.7596 154.316 12.9244 154.557 13.1233C154.801 13.3221 154.995 13.5622 155.137 13.8434C155.279 14.1247 155.35 14.4542 155.35 14.8321C155.35 15.3434 155.219 15.7937 154.958 16.1829C154.696 16.5693 154.319 16.8718 153.824 17.0906C153.333 17.3065 152.738 17.4145 152.039 17.4145C151.36 17.4145 150.77 17.3093 150.27 17.0991C149.773 16.8889 149.384 16.5821 149.103 16.1787C148.824 15.7752 148.674 15.2838 148.651 14.7042H150.206C150.229 15.0082 150.323 15.261 150.488 15.4627C150.652 15.6645 150.867 15.815 151.131 15.9145C151.398 16.0139 151.696 16.0636 152.026 16.0636C152.37 16.0636 152.671 16.0125 152.929 15.9102C153.191 15.8051 153.395 15.6602 153.543 15.4755C153.691 15.288 153.766 15.0693 153.769 14.8193C153.766 14.592 153.699 14.4045 153.569 14.2568C153.438 14.1062 153.255 13.9812 153.019 13.8818C152.786 13.7795 152.513 13.6886 152.201 13.6091L151.208 13.3534C150.489 13.1687 149.921 12.8889 149.503 12.5139C149.088 12.136 148.881 11.6346 148.881 11.0096C148.881 10.4954 149.02 10.0451 149.299 9.65877C149.58 9.27241 149.962 8.97269 150.445 8.75962C150.928 8.54371 151.475 8.43576 152.086 8.43576C152.705 8.43576 153.248 8.54371 153.713 8.75962C154.182 8.97269 154.55 9.26956 154.817 9.65025C155.084 10.0281 155.222 10.4627 155.23 10.9542H153.709ZM156.759 17.2823V8.55508H162.435V9.88036H158.34V12.2497H162.141V13.575H158.34V15.9571H162.469V17.2823H156.759ZM165.629 8.55508V17.2823H164.048V8.55508H165.629ZM167.341 17.2823V8.55508H168.922V15.9571H172.766V17.2823H167.341ZM175.881 16.0892L175.826 16.5579C175.786 16.9159 175.715 17.2795 175.613 17.6488C175.513 18.021 175.408 18.3633 175.297 18.6758C175.186 18.9883 175.097 19.2341 175.029 19.413H173.989C174.029 19.2397 174.083 19.0039 174.151 18.7056C174.222 18.4073 174.29 18.0721 174.355 17.7C174.421 17.3278 174.465 16.95 174.488 16.5664L174.517 16.0892H175.881ZM183.342 17.2823H180.384V8.55508H183.401C184.268 8.55508 185.012 8.72979 185.634 9.07922C186.259 9.42581 186.739 9.92439 187.075 10.575C187.41 11.2255 187.577 12.0039 187.577 12.9102C187.577 13.8193 187.408 14.6005 187.07 15.2539C186.735 15.9073 186.251 16.4088 185.617 16.7582C184.987 17.1076 184.228 17.2823 183.342 17.2823ZM181.965 15.9145H183.265C183.873 15.9145 184.38 15.8037 184.786 15.5821C185.192 15.3576 185.498 15.0238 185.702 14.5806C185.907 14.1346 186.009 13.5778 186.009 12.9102C186.009 12.2426 185.907 11.6886 185.702 11.2483C185.498 10.8051 185.195 10.4741 184.795 10.2554C184.397 10.0338 183.903 9.92297 183.312 9.92297H181.965V15.9145ZM189.08 17.2823V8.55508H194.756V9.88036H190.661V12.2497H194.462V13.575H190.661V15.9571H194.79V17.2823H189.08ZM201.112 10.9542C201.072 10.5821 200.904 10.2923 200.609 10.0849C200.316 9.87752 199.935 9.77383 199.467 9.77383C199.137 9.77383 198.854 9.82354 198.619 9.92297C198.383 10.0224 198.202 10.1573 198.077 10.3278C197.952 10.4983 197.888 10.6929 197.886 10.9116C197.886 11.0934 197.927 11.2511 198.009 11.3846C198.094 11.5181 198.21 11.6318 198.354 11.7255C198.499 11.8164 198.66 11.8931 198.836 11.9556C199.012 12.0181 199.19 12.0707 199.369 12.1133L200.187 12.3179C200.516 12.3946 200.833 12.4983 201.137 12.6289C201.444 12.7596 201.718 12.9244 201.96 13.1233C202.204 13.3221 202.397 13.5622 202.539 13.8434C202.681 14.1247 202.752 14.4542 202.752 14.8321C202.752 15.3434 202.621 15.7937 202.36 16.1829C202.099 16.5693 201.721 16.8718 201.227 17.0906C200.735 17.3065 200.14 17.4145 199.441 17.4145C198.762 17.4145 198.173 17.3093 197.673 17.0991C197.175 16.8889 196.786 16.5821 196.505 16.1787C196.227 15.7752 196.076 15.2838 196.053 14.7042H197.609C197.631 15.0082 197.725 15.261 197.89 15.4627C198.055 15.6645 198.269 15.815 198.533 15.9145C198.8 16.0139 199.099 16.0636 199.428 16.0636C199.772 16.0636 200.073 16.0125 200.332 15.9102C200.593 15.8051 200.798 15.6602 200.945 15.4755C201.093 15.288 201.168 15.0693 201.171 14.8193C201.168 14.592 201.102 14.4045 200.971 14.2568C200.84 14.1062 200.657 13.9812 200.421 13.8818C200.188 13.7795 199.915 13.6886 199.603 13.6091L198.61 13.3534C197.891 13.1687 197.323 12.8889 196.906 12.5139C196.491 12.136 196.283 11.6346 196.283 11.0096C196.283 10.4954 196.423 10.0451 196.701 9.65877C196.982 9.27241 197.364 8.97269 197.847 8.75962C198.33 8.54371 198.877 8.43576 199.488 8.43576C200.107 8.43576 200.65 8.54371 201.116 8.75962C201.585 8.97269 201.952 9.26956 202.219 9.65025C202.487 10.0281 202.624 10.4627 202.633 10.9542H201.112ZM205.743 8.55508V17.2823H204.162V8.55508H205.743ZM213.301 11.342C213.23 11.1119 213.132 10.9059 213.007 10.7241C212.885 10.5395 212.737 10.3818 212.564 10.2511C212.393 10.1204 212.197 10.0224 211.976 9.95706C211.754 9.88888 211.513 9.85479 211.251 9.85479C210.783 9.85479 210.365 9.97269 209.999 10.2085C209.632 10.4443 209.344 10.7909 209.134 11.2483C208.926 11.7028 208.822 12.2568 208.822 12.9102C208.822 13.5693 208.926 14.1275 209.134 14.5849C209.341 15.0423 209.629 15.3903 209.999 15.6289C210.368 15.8647 210.797 15.9826 211.286 15.9826C211.729 15.9826 212.112 15.8974 212.436 15.727C212.763 15.5565 213.014 15.315 213.19 15.0025C213.366 14.6872 213.455 14.3179 213.455 13.8946L213.812 13.95H211.443V12.7142H214.984V13.7625C214.984 14.5096 214.825 15.1559 214.507 15.7014C214.189 16.2468 213.751 16.6673 213.195 16.9627C212.638 17.2554 211.999 17.4017 211.277 17.4017C210.473 17.4017 209.767 17.2213 209.159 16.8605C208.554 16.4968 208.081 15.9812 207.74 15.3136C207.402 14.6431 207.233 13.8477 207.233 12.9272C207.233 12.2227 207.332 11.5934 207.531 11.0395C207.733 10.4855 208.014 10.0153 208.375 9.62894C208.736 9.23973 209.159 8.94428 209.645 8.74258C210.131 8.53803 210.659 8.43576 211.23 8.43576C211.713 8.43576 212.163 8.50678 212.581 8.64883C212.999 8.78803 213.369 8.98689 213.693 9.24542C214.02 9.50394 214.288 9.81076 214.499 10.1659C214.709 10.521 214.847 10.913 214.912 11.342H213.301ZM223.685 8.55508V17.2823H222.279L218.167 11.3377H218.094V17.2823H216.513V8.55508H217.928L222.036 14.5039H222.113V8.55508H223.685ZM230.924 17.4102C230.327 17.4102 229.815 17.3022 229.386 17.0863C228.957 16.8704 228.626 16.5792 228.393 16.2127C228.163 15.8434 228.048 15.4272 228.048 14.9642C228.048 14.6147 228.119 14.3051 228.261 14.0352C228.406 13.7653 228.604 13.5153 228.857 13.2852C229.113 13.0551 229.408 12.8264 229.744 12.5991L231.29 11.5466C231.518 11.3988 231.69 11.2426 231.806 11.0778C231.925 10.913 231.985 10.7198 231.985 10.4983C231.985 10.3108 231.906 10.1332 231.746 9.96559C231.59 9.79797 231.374 9.71417 231.099 9.71417C230.914 9.71417 230.751 9.7582 230.609 9.84627C230.469 9.9315 230.36 10.0437 230.281 10.1829C230.204 10.3221 230.165 10.4698 230.165 10.6261C230.165 10.8164 230.218 11.0096 230.323 11.2056C230.431 11.4017 230.57 11.6048 230.741 11.815C230.914 12.0252 231.099 12.2483 231.295 12.4841L235.39 17.2823H233.719L230.319 13.3875C230.066 13.092 229.822 12.8008 229.586 12.5139C229.353 12.227 229.161 11.9287 229.011 11.619C228.863 11.3065 228.789 10.9684 228.789 10.6048C228.789 10.1929 228.884 9.82496 229.075 9.5011C229.265 9.17439 229.531 8.91729 229.871 8.72979C230.215 8.54229 230.617 8.44854 231.077 8.44854C231.538 8.44854 231.933 8.53945 232.262 8.72127C232.592 8.90309 232.846 9.14456 233.025 9.4457C233.204 9.74684 233.293 10.075 233.293 10.4301C233.293 10.842 233.191 11.2113 232.987 11.538C232.782 11.8619 232.498 12.1559 232.134 12.4201L230.37 13.7113C230.08 13.9216 229.873 14.1346 229.748 14.3505C229.623 14.5636 229.56 14.7454 229.56 14.896C229.56 15.1261 229.619 15.3349 229.735 15.5224C229.852 15.7099 230.015 15.8605 230.225 15.9741C230.438 16.0849 230.687 16.1403 230.971 16.1403C231.283 16.1403 231.592 16.0707 231.896 15.9315C232.2 15.7895 232.477 15.5877 232.727 15.3264C232.977 15.065 233.175 14.7525 233.323 14.3889C233.471 14.0224 233.545 13.6162 233.545 13.1701H234.87C234.87 13.7213 234.809 14.2014 234.687 14.6105C234.565 15.0167 234.407 15.3605 234.214 15.6417C234.021 15.9201 233.816 16.1431 233.6 16.3108C233.532 16.3591 233.467 16.4073 233.404 16.4556C233.342 16.5039 233.276 16.5522 233.208 16.6005C232.901 16.8789 232.542 17.0835 232.13 17.2142C231.721 17.3448 231.319 17.4102 230.924 17.4102ZM121.861 34.2823V25.5551H125.134C125.804 25.5551 126.366 25.6716 126.821 25.9045C127.278 26.1375 127.624 26.4642 127.857 26.8846C128.092 27.3022 128.21 27.7895 128.21 28.3463C128.21 28.9059 128.091 29.3917 127.852 29.8037C127.616 30.2127 127.268 30.5295 126.808 30.7539C126.348 30.9755 125.783 31.0863 125.112 31.0863H122.781V29.7738H124.899C125.291 29.7738 125.612 29.7198 125.862 29.6119C126.112 29.5011 126.297 29.3406 126.416 29.1304C126.538 28.9173 126.599 28.6559 126.599 28.3463C126.599 28.0366 126.538 27.7724 126.416 27.5537C126.294 27.3321 126.108 27.1645 125.858 27.0508C125.608 26.9343 125.286 26.8761 124.891 26.8761H123.442V34.2823H121.861ZM126.369 30.3278L128.53 34.2823H126.766L124.643 30.3278H126.369ZM129.665 34.2823V25.5551H135.342V26.8804H131.246V29.2497H135.048V30.575H131.246V32.9571H135.376V34.2823H129.665ZM131.915 24.6943L132.87 22.7468H134.379L133.07 24.6943H131.915ZM138.075 34.2823H136.388L139.46 25.5551H141.412L144.489 34.2823H142.801L140.47 27.3448H140.402L138.075 34.2823ZM138.131 30.8605H142.733V32.1304H138.131V30.8605ZM145.638 34.2823V25.5551H147.219V32.9571H151.063V34.2823H145.638ZM154.016 25.5551V34.2823H152.435V25.5551H154.016ZM160.471 27.9542C160.431 27.5821 160.263 27.2923 159.968 27.0849C159.675 26.8775 159.295 26.7738 158.826 26.7738C158.496 26.7738 158.214 26.8235 157.978 26.923C157.742 27.0224 157.562 27.1573 157.437 27.3278C157.312 27.4983 157.248 27.6929 157.245 27.9116C157.245 28.0934 157.286 28.2511 157.369 28.3846C157.454 28.5181 157.569 28.6318 157.714 28.7255C157.859 28.8164 158.019 28.8931 158.195 28.9556C158.371 29.0181 158.549 29.0707 158.728 29.1133L159.546 29.3179C159.876 29.3946 160.192 29.4983 160.496 29.6289C160.803 29.7596 161.077 29.9244 161.319 30.1233C161.563 30.3221 161.756 30.5622 161.898 30.8434C162.04 31.1247 162.112 31.4542 162.112 31.8321C162.112 32.3434 161.981 32.7937 161.719 33.1829C161.458 33.5693 161.08 33.8718 160.586 34.0906C160.094 34.3065 159.499 34.4145 158.8 34.4145C158.121 34.4145 157.532 34.3093 157.032 34.0991C156.535 33.8889 156.146 33.5821 155.864 33.1787C155.586 32.7752 155.435 32.2838 155.413 31.7042H156.968C156.991 32.0082 157.085 32.261 157.249 32.4627C157.414 32.6645 157.629 32.815 157.893 32.9145C158.16 33.0139 158.458 33.0636 158.788 33.0636C159.131 33.0636 159.433 33.0125 159.691 32.9102C159.952 32.8051 160.157 32.6602 160.305 32.4755C160.452 32.288 160.528 32.0693 160.531 31.8193C160.528 31.592 160.461 31.4045 160.33 31.2568C160.2 31.1062 160.016 30.9812 159.781 30.8818C159.548 30.7795 159.275 30.6886 158.962 30.6091L157.969 30.3534C157.251 30.1687 156.683 29.8889 156.265 29.5139C155.85 29.136 155.643 28.6346 155.643 28.0096C155.643 27.4954 155.782 27.0451 156.06 26.6588C156.342 26.2724 156.724 25.9727 157.207 25.7596C157.69 25.5437 158.237 25.4358 158.847 25.4358C159.467 25.4358 160.009 25.5437 160.475 25.7596C160.944 25.9727 161.312 26.2696 161.579 26.6502C161.846 27.0281 161.984 27.4627 161.992 27.9542H160.471ZM164.501 34.2823H162.814L165.886 25.5551H167.838L170.914 34.2823H169.227L166.896 27.3448H166.828L164.501 34.2823ZM164.556 30.8605H169.159V32.1304H164.556V30.8605ZM170.626 26.8804V25.5551H177.589V26.8804H174.891V34.2823H173.323V26.8804H170.626ZM180.512 25.5551V34.2823H178.931V25.5551H180.512ZM190.022 29.9187C190.022 30.8591 189.846 31.6645 189.494 32.3349C189.145 33.0025 188.667 33.5139 188.062 33.869C187.46 34.2241 186.777 34.4017 186.012 34.4017C185.248 34.4017 184.564 34.2241 183.958 33.869C183.356 33.511 182.879 32.9983 182.527 32.3306C182.177 31.6602 182.002 30.8562 182.002 29.9187C182.002 28.9784 182.177 28.1744 182.527 27.5068C182.879 26.8363 183.356 26.3235 183.958 25.9684C184.564 25.6133 185.248 25.4358 186.012 25.4358C186.777 25.4358 187.46 25.6133 188.062 25.9684C188.667 26.3235 189.145 26.8363 189.494 27.5068C189.846 28.1744 190.022 28.9784 190.022 29.9187ZM188.433 29.9187C188.433 29.2568 188.329 28.6985 188.122 28.244C187.917 27.7866 187.633 27.4414 187.27 27.2085C186.906 26.9727 186.487 26.8548 186.012 26.8548C185.538 26.8548 185.119 26.9727 184.755 27.2085C184.392 27.4414 184.106 27.7866 183.899 28.244C183.694 28.6985 183.592 29.2568 183.592 29.9187C183.592 30.5806 183.694 31.1403 183.899 31.5977C184.106 32.0522 184.392 32.3974 184.755 32.6332C185.119 32.8662 185.538 32.9826 186.012 32.9826C186.487 32.9826 186.906 32.8662 187.27 32.6332C187.633 32.3974 187.917 32.0522 188.122 31.5977C188.329 31.1403 188.433 30.5806 188.433 29.9187ZM198.689 25.5551V34.2823H197.283L193.17 28.3377H193.098V34.2823H191.517V25.5551H192.932L197.04 31.5039H197.116V25.5551H198.689ZM210.56 25.5551V34.2823H209.154L205.042 28.3377H204.969V34.2823H203.388V25.5551H204.803L208.911 31.5039H208.988V25.5551H210.56ZM217.784 25.5551H219.365V31.2568C219.365 31.8818 219.217 32.4315 218.922 32.9059C218.629 33.3804 218.217 33.7511 217.686 34.0181C217.155 34.2823 216.534 34.4145 215.824 34.4145C215.111 34.4145 214.489 34.2823 213.957 34.0181C213.426 33.7511 213.014 33.3804 212.722 32.9059C212.429 32.4315 212.283 31.8818 212.283 31.2568V25.5551H213.864V31.1247C213.864 31.4883 213.943 31.8122 214.102 32.0963C214.264 32.3804 214.491 32.6034 214.784 32.7653C215.077 32.9244 215.423 33.0039 215.824 33.0039C216.224 33.0039 216.571 32.9244 216.864 32.7653C217.159 32.6034 217.386 32.3804 217.545 32.0963C217.705 31.8122 217.784 31.4883 217.784 31.1247V25.5551ZM221.083 25.5551H223.018L225.609 31.8789H225.711L228.302 25.5551H230.237V34.2823H228.72V28.2866H228.639L226.227 34.2568H225.093L222.681 28.2738H222.6V34.2823H221.083V25.5551ZM231.958 34.2823V25.5551H237.635V26.8804H233.539V29.2497H237.341V30.575H233.539V32.9571H237.669V34.2823H231.958ZM234.208 24.6943L235.163 22.7468H236.672L235.363 24.6943H234.208ZM239.248 34.2823V25.5551H242.52C243.191 25.5551 243.753 25.6716 244.208 25.9045C244.665 26.1375 245.01 26.4642 245.243 26.8846C245.479 27.3022 245.597 27.7895 245.597 28.3463C245.597 28.9059 245.478 29.3917 245.239 29.8037C245.003 30.2127 244.655 30.5295 244.195 30.7539C243.735 30.9755 243.169 31.0863 242.499 31.0863H240.168V29.7738H242.286C242.678 29.7738 242.999 29.7198 243.249 29.6119C243.499 29.5011 243.684 29.3406 243.803 29.1304C243.925 28.9173 243.986 28.6559 243.986 28.3463C243.986 28.0366 243.925 27.7724 243.803 27.5537C243.681 27.3321 243.495 27.1645 243.245 27.0508C242.995 26.9343 242.672 26.8761 242.277 26.8761H240.828V34.2823H239.248ZM243.756 30.3278L245.917 34.2823H244.152L242.03 30.3278H243.756ZM248.633 25.5551V34.2823H247.052V25.5551H248.633ZM253.597 31.3505H255.028L255.876 32.45L256.482 33.1659L257.935 35.0323H256.401L255.412 33.7795L254.99 33.1829L253.597 31.3505ZM258.143 29.9187C258.143 30.8591 257.967 31.6645 257.615 32.3349C257.266 33.0025 256.788 33.5139 256.183 33.869C255.581 34.2241 254.898 34.4017 254.134 34.4017C253.369 34.4017 252.685 34.2241 252.08 33.869C251.477 33.511 251 32.9983 250.648 32.3306C250.298 31.6602 250.124 30.8562 250.124 29.9187C250.124 28.9784 250.298 28.1744 250.648 27.5068C251 26.8363 251.477 26.3235 252.08 25.9684C252.685 25.6133 253.369 25.4358 254.134 25.4358C254.898 25.4358 255.581 25.6133 256.183 25.9684C256.788 26.3235 257.266 26.8363 257.615 27.5068C257.967 28.1744 258.143 28.9784 258.143 29.9187ZM256.554 29.9187C256.554 29.2568 256.45 28.6985 256.243 28.244C256.038 27.7866 255.754 27.4414 255.391 27.2085C255.027 26.9727 254.608 26.8548 254.134 26.8548C253.659 26.8548 253.24 26.9727 252.876 27.2085C252.513 27.4414 252.227 27.7866 252.02 28.244C251.815 28.6985 251.713 29.2568 251.713 29.9187C251.713 30.5806 251.815 31.1403 252.02 31.5977C252.227 32.0522 252.513 32.3974 252.876 32.6332C253.24 32.8662 253.659 32.9826 254.134 32.9826C254.608 32.9826 255.027 32.8662 255.391 32.6332C255.754 32.3974 256.038 32.0522 256.243 31.5977C256.45 31.1403 256.554 30.5806 256.554 29.9187ZM265.151 25.5551H266.732V31.2568C266.732 31.8818 266.585 32.4315 266.289 32.9059C265.996 33.3804 265.585 33.7511 265.053 34.0181C264.522 34.2823 263.901 34.4145 263.191 34.4145C262.478 34.4145 261.856 34.2823 261.325 34.0181C260.793 33.7511 260.381 33.3804 260.089 32.9059C259.796 32.4315 259.65 31.8818 259.65 31.2568V25.5551H261.231V31.1247C261.231 31.4883 261.31 31.8122 261.469 32.0963C261.631 32.3804 261.859 32.6034 262.151 32.7653C262.444 32.9244 262.79 33.0039 263.191 33.0039C263.592 33.0039 263.938 32.9244 264.231 32.7653C264.526 32.6034 264.754 32.3804 264.913 32.0963C265.072 31.8122 265.151 31.4883 265.151 31.1247V25.5551ZM268.451 34.2823V25.5551H274.127V26.8804H270.032V29.2497H273.833V30.575H270.032V32.9571H274.161V34.2823H268.451Z" fill="#0D1414"/>
</svg>
