<svg xmlns:xlink="http://www.w3.org/1999/xlink" xmlns="http://www.w3.org/2000/svg" width="364" height="411" viewBox="0 0 364 411" fill="none">
<path d="M273.88 234.74L262.63 241.24C261.79 232.05 260.68 222.77 259.29 213.49C268.13 217.22 273.88 224.8 273.88 234.74Z" fill="white"/>
<path d="M264.99 283.99C265.34 295.11 259.96 305.7 250.61 311.72C242.31 317.05 231.93 321.68 221.06 325.01C213.14 327.46 204.97 329.22 197.16 330.08C193.58 330.48 190.07 330.69 186.7 330.69C183.33 330.69 179.96 330.56 176.72 330.32C168.06 329.69 160.04 328.24 152.82 326.23C144.39 323.89 137.07 320.77 131.13 317.25V293.31C145.97 301.6 165.45 307.4 186.7 307.57C221.87 307.29 252.2 291.59 264.65 274.66C264.76 277.57 264.88 280.7 264.99 283.99Z" fill="#0D1414"/>
<path d="M262.63 241.24C263.34 248.93 263.86 256.57 264.19 264.11C264.33 267.16 264.49 270.71 264.65 274.66C252.2 291.59 221.87 307.29 186.7 307.57C165.45 307.4 145.97 301.6 131.13 293.31V270.01C125.79 273.08 120.45 277.2 115.32 281.98C112.81 279.64 110.64 277.23 108.84 274.79C108.84 274.71 108.84 274.43 108.84 274.37C108.84 273.93 108.87 273.48 108.88 273.04C108.88 272.87 108.89 272.69 108.9 272.52C108.89 272.48 108.9 272.44 108.9 272.39C108.9 272.1 108.91 271.82 108.92 271.53C108.93 271.16 108.94 270.78 108.95 270.4C108.96 270.33 108.95 270.27 108.96 270.2C108.98 269.14 109.83 252.99 109.84 252.77C109.88 251.98 111.22 236.66 111.22 236.59C111.35 235.37 113.52 217.55 113.55 217.31C113.71 216.11 114.95 207.95 115.42 205.07C116.37 199.33 117.42 193.61 118.55 187.93C124.75 157.02 133.96 126.06 146.28 97.9297C144.6 104.99 148.45 112.39 157.84 117.81C165.81 122.41 176.25 124.71 186.7 124.71C197.15 124.71 207.58 122.41 215.55 117.81C224.94 112.39 228.79 104.99 227.11 97.9297C242.5 133.07 253.35 173.38 259.29 213.49C260.68 222.77 261.79 232.05 262.63 241.24ZM232.36 202.08C241.98 190.88 242.93 172.77 234.48 161.62C226.02 150.48 211.37 150.52 201.74 161.72C192.12 172.92 191.17 191.03 199.62 202.17C208.07 213.32 222.73 213.28 232.36 202.08Z" fill="white"/>
<path d="M234.48 161.62C242.93 172.77 241.98 190.88 232.36 202.08C222.73 213.28 208.07 213.32 199.62 202.17C191.17 191.03 192.12 172.92 201.74 161.72C211.37 150.52 226.02 150.48 234.48 161.62ZM227.11 195.16C233.44 187.8 234.06 175.9 228.5 168.57C222.95 161.25 213.32 161.27 206.99 168.64C200.66 176 200.04 187.9 205.59 195.23C211.15 202.56 220.78 202.53 227.11 195.16Z" fill="white"/>
<path d="M228.5 168.57C234.06 175.9 233.44 187.8 227.11 195.16C220.78 202.53 211.15 202.56 205.59 195.23C200.04 187.9 200.66 176 206.99 168.64C213.32 161.27 222.95 161.25 228.5 168.57Z" fill="#0D1414"/>
<path d="M227.11 97.9304C228.79 104.99 224.94 112.39 215.55 117.81C207.58 122.41 197.14 124.71 186.7 124.71C176.26 124.71 165.81 122.41 157.84 117.81C148.45 112.39 144.6 104.99 146.28 97.9304C148.08 93.8304 149.93 89.8204 151.83 85.9004C150.64 91.8304 153.99 98.0104 161.88 102.57C168.73 106.52 177.71 108.5 186.7 108.5C195.69 108.5 204.66 106.52 211.51 102.57C219.4 98.0104 222.75 91.8304 221.56 85.9004C223.46 89.8204 225.31 93.8304 227.11 97.9204V97.9304Z" fill="#EAECF0"/>
<path d="M221.56 85.9C222.75 91.83 219.4 98.01 211.51 102.57C204.66 106.52 195.68 108.5 186.7 108.5C177.72 108.5 168.73 106.52 161.88 102.57C153.99 98.01 150.64 91.83 151.83 85.9C151.83 85.9 151.84 85.9 151.84 85.88C161.97 65.02 173.66 46.67 186.7 32C199.73 46.67 211.42 65.02 221.55 85.88C221.55 85.89 221.56 85.9 221.56 85.9Z" fill="#D0FFE9"/>
<path d="M221.06 325.02C217.24 357.31 207.49 379.37 186.86 408.79C166.5 379.74 156.74 357.86 152.82 326.23C160.04 328.24 168.06 329.69 176.72 330.32C178.34 338.07 181.44 344.28 186.91 352.09C192.45 344.2 195.56 337.95 197.16 330.08C204.97 329.22 213.14 327.46 221.06 325.01V325.02Z" fill="#CE6CA7"/>
<path d="M197.16 330.08C195.56 337.95 192.45 344.2 186.91 352.09C181.44 344.28 178.34 338.07 176.72 330.32C179.96 330.56 183.29 330.69 186.7 330.69C190.11 330.69 193.58 330.48 197.16 330.08Z" fill="white"/>
<path d="M131.13 317.25V317.32L77.6499 348.19C77.6499 332.85 91.3499 307.32 108.94 288.39C109.97 287.28 111.01 286.19 112.07 285.13C113.14 284.05 114.23 283 115.32 281.98C120.45 277.2 125.79 273.08 131.13 270.01V317.25Z" fill="white"/>
<path d="M115.42 205.07C116.36 199.37 117.4 193.65 118.55 187.93C117.42 193.61 116.37 199.33 115.42 205.07Z" fill="white"/>
<path d="M115.32 281.98C114.23 283 113.14 284.05 112.07 285.13C111.01 286.19 109.97 287.28 108.94 288.39C108.92 288.21 108.9 288.04 108.88 287.86C108.78 286.81 108.74 285.28 108.73 283.49C108.73 282.37 108.8 276.57 108.84 274.79C110.64 277.23 112.81 279.64 115.32 281.98Z" fill="#0D1414"/>
<path d="M112.87 222.37C112.71 223.61 112.55 224.86 112.4 226.1C112.55 224.86 112.7 223.62 112.87 222.37Z" fill="white"/>
<path d="M111.99 229.49C111.89 230.35 111.8 231.2 111.7 232.04C111.8 231.19 111.89 230.34 111.99 229.49Z" fill="white"/>
<path d="M111.61 232.92L111.22 236.59C111.34 235.37 111.47 234.14 111.61 232.92Z" fill="white"/>
<path d="M111.17 237.09L110.78 241.24C110.64 242.78 110.5 244.34 110.37 245.88C110.6 242.95 110.87 240.02 111.17 237.09Z" fill="white"/>
<path d="M110.01 250.4C110.12 248.9 110.24 247.39 110.37 245.88L110.01 250.4Z" fill="white"/>
<path d="M109.56 257.11C109.63 255.88 109.71 254.66 109.8 253.43C109.7 254.9 109.61 256.33 109.53 257.71C109.54 257.51 109.55 257.31 109.56 257.11Z" fill="white"/>
<path d="M109.38 260.4C109.42 259.5 109.47 258.61 109.53 257.71L109.38 260.4Z" fill="white"/>
<path d="M109.2 264.11C109.25 262.88 109.31 261.64 109.38 260.4C109.31 261.7 109.25 262.94 109.2 264.11Z" fill="white"/>
<path d="M109.14 265.43C109.13 265.67 109.12 265.93 109.11 266.21L109.14 265.43Z" fill="white"/>
<path d="M108.96 270.2C108.99 269.23 109.03 268.25 109.07 267.27C109.04 268.15 109 269.14 108.96 270.2Z" fill="white"/>
<path d="M108.84 274.37V274.79L108.83 274.78C108.83 274.64 108.84 274.51 108.84 274.37Z" fill="white"/>
<path d="M108.84 274.79C108.8 276.57 108.73 282.37 108.73 283.49C108.71 280.91 108.76 277.79 108.83 274.78C108.83 274.78 108.83 274.79 108.84 274.79Z" fill="white"/>
<path d="M108.73 283.49C108.74 285.28 108.79 286.81 108.88 287.86C108.77 286.91 108.72 285.97 108.72 285.02C108.72 284.51 108.72 284 108.73 283.49Z" fill="white"/>
<path d="M108.74 274.66L108.83 274.78C108.83 274.78 108.83 274.79 108.84 274.79C110.64 277.23 112.81 279.64 115.32 281.98" stroke="#0D1414" stroke-width="3" stroke-linecap="round" stroke-linejoin="round"/>
<path d="M131.13 293.31C145.97 301.6 165.45 307.4 186.7 307.57C221.87 307.29 252.2 291.59 264.65 274.66" stroke="#0D1414" stroke-width="3" stroke-linecap="round" stroke-linejoin="round"/>
<path d="M221.56 85.9004C222.75 91.8304 219.4 98.0104 211.51 102.57C204.66 106.52 195.68 108.5 186.7 108.5C177.72 108.5 168.73 106.52 161.88 102.57C153.99 98.0104 150.64 91.8304 151.83 85.9004" stroke="#0D1414" stroke-width="3" stroke-linecap="round" stroke-linejoin="round"/>
<path d="M227.11 97.9297C228.79 104.99 224.94 112.39 215.55 117.81C207.58 122.41 197.14 124.71 186.7 124.71C176.26 124.71 165.81 122.41 157.84 117.81C148.45 112.39 144.6 104.99 146.28 97.9297" stroke="#0D1414" stroke-width="3" stroke-linecap="round" stroke-linejoin="round"/>
<path d="M115.42 205.07C116.36 199.37 117.4 193.65 118.55 187.93C124.76 157.02 133.96 126.06 146.28 97.93C148.08 93.83 149.93 89.82 151.83 85.9C151.83 85.9 151.84 85.9 151.84 85.88C161.97 65.02 173.66 46.67 186.7 32C199.73 46.67 211.42 65.02 221.55 85.88C221.55 85.89 221.56 85.9 221.56 85.9C223.46 89.82 225.31 93.83 227.11 97.92C242.5 133.07 253.32 173.38 259.29 213.49C260.67 222.77 261.79 232.05 262.63 241.24C263.34 248.93 263.86 256.57 264.19 264.11C264.33 267.16 264.88 280.7 264.99 283.99C265.34 295.11 259.96 305.7 250.61 311.72C242.31 317.05 231.93 321.67 221.06 325.01C213.14 327.45 204.97 329.21 197.16 330.08C193.58 330.48 190.07 330.69 186.7 330.69C183.33 330.69 179.96 330.56 176.72 330.32C168.06 329.68 160.04 328.24 152.82 326.23C144.39 323.89 137.07 320.77 131.13 317.25" stroke="#0D1414" stroke-width="3" stroke-linecap="round" stroke-linejoin="round"/>
<path d="M113.55 217.31C113.72 216.11 113.89 214.91 114.07 213.71" stroke="#0D1414" stroke-width="3" stroke-linecap="round" stroke-linejoin="round"/>
<path d="M112.4 226.1C112.55 224.86 112.7 223.62 112.87 222.37" stroke="#0D1414" stroke-width="3" stroke-linecap="round" stroke-linejoin="round"/>
<path d="M111.7 232.04C111.8 231.2 112.19 227.79 112.29 226.94" stroke="#0D1414" stroke-width="3" stroke-linecap="round" stroke-linejoin="round"/>
<path d="M111.22 236.59L111.61 232.92" stroke="#0D1414" stroke-width="3" stroke-linecap="round" stroke-linejoin="round"/>
<path d="M110.01 250.4C110.13 248.91 111.04 238.48 111.17 237.09" stroke="#0D1414" stroke-width="3" stroke-linecap="round" stroke-linejoin="round"/>
<path d="M109.2 264.11C109.25 262.94 109.7 254.9 109.8 253.43" stroke="#0D1414" stroke-width="3" stroke-linecap="round" stroke-linejoin="round"/>
<path d="M109.11 266.21C109.12 265.93 109.13 265.67 109.14 265.43" stroke="#0D1414" stroke-width="3" stroke-linecap="round" stroke-linejoin="round"/>
<path d="M108.96 270.2C109 269.14 109.04 268.15 109.07 267.27" stroke="#0D1414" stroke-width="3" stroke-linecap="round" stroke-linejoin="round"/>
<path d="M108.94 288.39C108.92 288.21 108.9 288.04 108.88 287.86C108.78 286.81 108.74 285.28 108.73 283.49C108.71 280.91 108.8 277.79 108.83 274.78C108.83 274.64 108.84 274.51 108.84 274.37" stroke="#0D1414" stroke-width="3" stroke-linecap="round" stroke-linejoin="round"/>
<path d="M108.84 274.37C108.84 274.43 108.72 284.51 108.72 285.02C108.72 285.97 108.77 286.91 108.88 287.86" stroke="#0D1414" stroke-width="3" stroke-linecap="round" stroke-linejoin="round"/>
<path d="M108.84 274.37C108.86 273.93 108.87 273.48 108.88 273.04C108.88 272.87 108.89 272.69 108.9 272.52C108.89 272.48 108.9 272.44 108.9 272.39C108.9 272.1 108.91 271.82 108.92 271.53C108.93 271.16 108.94 270.78 108.95 270.4C108.96 270.33 108.96 270.27 108.96 270.2" stroke="#0D1414" stroke-width="3" stroke-linecap="round" stroke-linejoin="round"/>
<path d="M109.07 267.27C109.03 268.25 108.99 269.23 108.96 270.2" stroke="#0D1414" stroke-width="3" stroke-linecap="round" stroke-linejoin="round"/>
<path d="M109.07 267.27C109.08 267.07 109.08 266.87 109.09 266.68V266.66C109.09 266.51 109.11 266.35 109.11 266.21" stroke="#0D1414" stroke-width="3" stroke-linecap="round" stroke-linejoin="round"/>
<path d="M109.14 265.43L109.11 266.21" stroke="#0D1414" stroke-width="3" stroke-linecap="round" stroke-linejoin="round"/>
<path d="M109.14 265.43C109.15 265.23 109.16 265.05 109.16 264.89C109.17 264.77 109.17 264.65 109.18 264.53C109.19 264.38 109.19 264.24 109.2 264.11" stroke="#0D1414" stroke-width="3" stroke-linecap="round" stroke-linejoin="round"/>
<path d="M109.8 253.43C109.71 254.66 109.25 262.88 109.2 264.11" stroke="#0D1414" stroke-width="3" stroke-linecap="round" stroke-linejoin="round"/>
<path d="M109.8 253.43C109.82 253.21 109.83 252.99 109.84 252.77C109.88 251.98 109.95 251.19 110.01 250.4" stroke="#0D1414" stroke-width="3" stroke-linecap="round" stroke-linejoin="round"/>
<path d="M111.17 237.09C110.87 240.02 110.12 248.9 110.01 250.4" stroke="#0D1414" stroke-width="3" stroke-linecap="round" stroke-linejoin="round"/>
<path d="M111.17 237.09C111.17 236.99 111.19 236.9 111.2 236.8C111.2 236.73 111.22 236.66 111.22 236.59" stroke="#0D1414" stroke-width="3" stroke-linecap="round" stroke-linejoin="round"/>
<path d="M111.61 232.92C111.47 234.14 111.34 235.37 111.22 236.59" stroke="#0D1414" stroke-width="3" stroke-linecap="round" stroke-linejoin="round"/>
<path d="M111.61 232.92C111.63 232.72 111.69 232.14 111.7 232.04" stroke="#0D1414" stroke-width="3" stroke-linecap="round" stroke-linejoin="round"/>
<path d="M112.29 226.94C112.19 227.79 111.8 231.19 111.7 232.04" stroke="#0D1414" stroke-width="3" stroke-linecap="round" stroke-linejoin="round"/>
<path d="M112.29 226.94C112.3 226.87 112.37 226.3 112.4 226.1" stroke="#0D1414" stroke-width="3" stroke-linecap="round" stroke-linejoin="round"/>
<path d="M112.87 222.37C112.71 223.61 112.55 224.86 112.4 226.1" stroke="#0D1414" stroke-width="3" stroke-linecap="round" stroke-linejoin="round"/>
<path d="M112.87 222.37C113.02 221.19 113.52 217.55 113.55 217.31" stroke="#0D1414" stroke-width="3" stroke-linecap="round" stroke-linejoin="round"/>
<path d="M114.07 213.71C113.89 214.91 113.72 216.11 113.55 217.31" stroke="#0D1414" stroke-width="3" stroke-linecap="round" stroke-linejoin="round"/>
<path d="M114.07 213.71C114.5 210.82 114.95 207.95 115.42 205.07" stroke="#0D1414" stroke-width="3" stroke-linecap="round" stroke-linejoin="round"/>
<path d="M118.55 187.93C117.42 193.61 116.37 199.33 115.42 205.07" stroke="#0D1414" stroke-width="3" stroke-linecap="round" stroke-linejoin="round"/>
<path d="M234.48 161.62C242.93 172.77 241.98 190.88 232.36 202.08C222.73 213.28 208.07 213.32 199.62 202.17C191.17 191.03 192.12 172.92 201.74 161.72C211.37 150.52 226.02 150.48 234.48 161.62Z" stroke="#0D1414" stroke-width="3" stroke-linecap="round" stroke-linejoin="round"/>
<path d="M228.5 168.57C234.06 175.9 233.44 187.8 227.11 195.16C220.78 202.53 211.15 202.56 205.59 195.23C200.04 187.9 200.66 176 206.99 168.64C213.32 161.27 222.95 161.25 228.5 168.57Z" stroke="#0D1414" stroke-width="3" stroke-linecap="round" stroke-linejoin="round"/>
<path d="M131.13 317.25V270.01C125.79 273.08 120.44 277.19 115.32 281.98C114.23 283 113.14 284.05 112.07 285.13C111.01 286.19 109.97 287.28 108.94 288.39C91.3599 307.33 77.6499 332.85 77.6499 348.19L131.13 317.32V317.25Z" stroke="#0D1414" stroke-width="3" stroke-linecap="round" stroke-linejoin="round"/>
<path d="M259.29 213.49C268.13 217.22 273.88 224.8 273.88 234.74L262.63 241.24H262.62" stroke="#0D1414" stroke-width="3" stroke-linecap="round" stroke-linejoin="round"/>
<path d="M152.82 326.23C156.74 357.86 166.5 379.74 186.86 408.79C207.49 379.37 217.24 357.31 221.06 325.02" stroke="#0D1414" stroke-width="3" stroke-linecap="round" stroke-linejoin="round"/>
<path d="M176.72 330.32C178.34 338.07 181.44 344.28 186.91 352.09C192.45 344.2 195.56 337.95 197.16 330.08" stroke="#0D1414" stroke-width="3" stroke-linecap="round" stroke-linejoin="round"/>
<path d="M152.25 164.707C152.48 166.367 152.6 168.017 152.6 169.627C152.6 177.307 149.85 182.657 145.4 185.037L126.55 195.157C129.8 193.357 132.13 189.937 133.1 185.157C133.43 183.527 133.61 181.747 133.61 179.807C133.61 164.787 123.07 146.517 110.07 139.017C109.21 138.517 108.35 138.087 107.51 137.697C105.68 119.917 93.3302 99.8571 78.3502 91.2171C75.2902 89.4571 72.3602 88.2971 69.6002 87.6971C65.3102 86.7571 61.4402 87.1671 58.2402 88.7871L76.8702 78.7871L76.9302 78.7471C82.2202 75.9071 89.4102 76.4371 97.3502 81.0171C112.32 89.6671 124.67 109.727 126.5 127.497C127.34 127.877 128.19 128.317 129.05 128.817C135.13 132.317 140.68 138.187 144.86 144.977C148.67 151.137 151.33 158.067 152.26 164.697L152.25 164.707Z" fill="#EAECF0"/>
<path d="M133.61 179.817C133.61 181.757 133.43 183.537 133.1 185.167C132.13 189.937 129.8 193.357 126.55 195.167L126.42 195.237C124.28 196.387 121.75 196.847 118.95 196.557C116.89 196.337 114.68 195.707 112.38 194.637C111.62 194.277 110.85 193.877 110.06 193.427L50.17 158.847C39.03 152.417 30 136.767 30 123.907C30 111.047 38.44 106.187 49.07 111.657C49.07 111.667 49.09 111.677 49.11 111.677C49.1 111.587 49.09 111.507 49.08 111.417C49 110.347 48.95 109.267 48.95 108.207C48.95 98.6172 52.39 91.9472 57.93 88.9672L58.23 88.8072C61.43 87.1972 65.3 86.7772 69.59 87.7172C72.35 88.3072 75.29 89.4672 78.34 91.2372C93.32 99.8772 105.66 119.937 107.5 137.717C108.34 138.107 109.19 138.537 110.06 139.037C123.07 146.537 133.6 164.807 133.6 179.827L133.61 179.817Z" fill="white"/>
<path d="M58.2397 88.7969L57.9398 88.9569C52.3898 91.9369 48.9597 98.6069 48.9597 108.197C48.9597 109.257 49.0097 110.337 49.0897 111.407C49.0897 111.497 49.0998 111.577 49.1198 111.667C49.0998 111.667 49.0898 111.667 49.0798 111.647C38.4398 106.177 30.0098 111.457 30.0098 123.897C30.0098 136.337 39.0397 152.397 50.1797 158.837C50.1797 158.837 111.63 194.267 112.39 194.627C114.69 195.697 116.89 196.327 118.96 196.547C121.76 196.847 124.29 196.387 126.43 195.227L126.56 195.157" stroke="#0D1414" stroke-width="3" stroke-linecap="round" stroke-linejoin="round"/>
<path d="M58.2395 88.7967C61.4395 87.1867 65.3095 86.7667 69.5995 87.7067C72.3595 88.2967 75.2995 89.4567 78.3495 91.2267C93.3295 99.8667 105.67 119.927 107.51 137.707C108.35 138.097 109.2 138.527 110.07 139.027C123.08 146.527 133.609 164.797 133.609 179.817C133.609 181.757 133.429 183.537 133.099 185.167C132.129 189.937 129.799 193.357 126.549 195.167L145.399 185.047C149.849 182.667 152.599 177.317 152.599 169.637C152.599 168.027 152.48 166.377 152.25 164.717C151.33 158.087 148.659 151.167 144.849 144.997C140.669 138.207 135.119 132.347 129.039 128.837C128.179 128.337 127.33 127.897 126.49 127.517C124.66 109.737 112.309 89.6767 97.3395 81.0367C89.3995 76.4567 82.2095 75.9267 76.9195 78.7667L76.8595 78.8067L58.2295 88.8067L58.2395 88.7967Z" stroke="#0D1414" stroke-width="3" stroke-linecap="round" stroke-linejoin="round"/>
</svg>